<svg width="79" height="79" xmlns="http://www.w3.org/2000/svg" xmlns:xlink="http://www.w3.org/1999/xlink" xml:space="preserve" overflow="hidden"><defs><clipPath id="clip0"><rect x="4002" y="2363" width="79" height="79"/></clipPath></defs><g clip-path="url(#clip0)" transform="translate(-4002 -2363)"><path d="M4019.94 2435.64 4004.99 2439.56 4008.98 2424.99 4008.04 2423.5C4004.08 2417.21 4002 2409.94 4002 2402.48 4002.01 2380.71 4019.73 2363 4041.52 2363 4052.07 2363 4061.98 2367.12 4069.44 2374.58 4076.9 2382.04 4081 2391.96 4081 2402.51 4080.99 2424.29 4063.27 2442 4041.5 2442L4041.48 2442C4034.4 2442 4027.45 2440.09 4021.38 2436.5L4019.94 2435.64ZM4065.44 2413.81C4065.15 2413.32 4064.35 2413.02 4063.17 2412.43 4061.98 2411.83 4056.14 2408.96 4055.05 2408.57 4053.97 2408.17 4053.17 2407.97 4052.38 2409.16 4051.59 2410.35 4049.31 2413.02 4048.62 2413.81 4047.93 2414.61 4047.24 2414.71 4046.05 2414.11 4044.86 2413.52 4041.04 2412.26 4036.5 2408.22 4032.97 2405.07 4030.59 2401.18 4029.89 2400 4029.2 2398.81 4029.82 2398.17 4030.41 2397.57 4030.95 2397.04 4031.6 2396.19 4032.2 2395.49 4032.79 2394.8 4032.99 2394.31 4033.38 2393.51 4033.78 2392.72 4033.58 2392.03 4033.28 2391.43 4032.99 2390.84 4030.61 2385 4029.62 2382.62 4028.66 2380.31 4027.68 2380.62 4026.95 2380.58 4026.26 2380.55 4025.47 2380.54 4024.68 2380.54 4023.88 2380.54 4022.6 2380.84 4021.51 2382.03 4020.42 2383.21 4017.35 2386.09 4017.35 2391.93 4017.35 2397.77 4021.61 2403.42 4022.2 2404.21 4022.8 2405 4030.57 2416.99 4042.49 2422.13 4045.32 2423.35 4047.53 2424.09 4049.26 2424.63 4052.1 2425.54 4054.69 2425.41 4056.74 2425.1 4059.02 2424.76 4063.76 2422.23 4064.75 2419.46 4065.74 2416.69 4065.74 2414.31 4065.44 2413.81Z" fill="#78966A" fill-rule="evenodd"/></g></svg>