<svg width="79" height="78" xmlns="http://www.w3.org/2000/svg" xmlns:xlink="http://www.w3.org/1999/xlink" xml:space="preserve" overflow="hidden"><g transform="translate(-4118 -2363)"><path d="M4131.83 2441C4124.19 2441 4118 2434.89 4118 2427.35L4118 2376.65C4118 2369.11 4124.19 2363 4131.83 2363L4183.18 2363C4190.81 2363 4197 2369.11 4197 2376.65L4197 2427.35C4197 2434.89 4190.81 2441 4183.18 2441Z" fill="#78966A" fill-rule="evenodd"/><path d="M4172.25 2432 4142.75 2432C4134.6 2432 4128 2425.4 4128 2417.25L4128 2387.75C4128 2379.6 4134.6 2373 4142.75 2373L4172.25 2373C4180.4 2373 4187 2379.6 4187 2387.75L4187 2417.25C4187 2425.4 4180.4 2432 4172.25 2432ZM4142.75 2378.9C4137.87 2378.91 4133.91 2382.86 4133.9 2387.75L4133.9 2417.25C4133.91 2422.14 4137.87 2426.09 4142.75 2426.1L4172.25 2426.1C4177.13 2426.09 4181.09 2422.14 4181.1 2417.25L4181.1 2387.75C4181.09 2382.86 4177.13 2378.91 4172.25 2378.9Z" fill="#FFFFFF" fill-rule="evenodd"/><path d="M4157 2419C4147.61 2419 4140 2411.39 4140 2402 4140 2392.61 4147.61 2385 4157 2385 4166.39 2385 4174 2392.61 4174 2402 4173.99 2411.39 4166.39 2418.99 4157 2419ZM4157 2391C4150.92 2391 4146 2395.93 4146 2402 4146 2408.08 4150.92 2413 4157 2413 4163.08 2413 4168 2408.08 4168 2402 4167.99 2395.93 4163.07 2391.01 4157 2391Z" fill="#FFFFFF" fill-rule="evenodd"/><path d="M4177 2386C4177 2387.66 4175.66 2389 4174 2389 4172.34 2389 4171 2387.66 4171 2386 4171 2384.34 4172.34 2383 4174 2383 4175.66 2383 4177 2384.34 4177 2386Z" fill="#FFFFFF" fill-rule="evenodd"/></g></svg>