<svg width="79" height="78" xmlns="http://www.w3.org/2000/svg" xmlns:xlink="http://www.w3.org/1999/xlink" xml:space="preserve" overflow="hidden"><g transform="translate(-4235 -2363)"><path d="M4314 2402.24C4314 2380.57 4296.32 2363 4274.5 2363 4252.68 2363 4235 2380.57 4235 2402.24 4235 2421.83 4249.44 2438.06 4268.33 2441L4268.33 2413.58 4258.3 2413.58 4258.3 2402.24 4268.33 2402.24 4268.33 2393.59C4268.33 2383.76 4274.22 2378.33 4283.25 2378.33 4287.57 2378.33 4292.09 2379.09 4292.09 2379.09L4292.09 2388.75 4287.11 2388.75C4282.2 2388.75 4280.67 2391.78 4280.67 2394.88L4280.67 2402.24 4291.63 2402.24 4289.88 2413.58 4280.67 2413.58 4280.67 2441C4299.56 2438.06 4314 2421.83 4314 2402.24Z" fill="#78966A" fill-rule="evenodd"/></g></svg>