<svg width="85" height="85" xmlns="http://www.w3.org/2000/svg" xmlns:xlink="http://www.w3.org/1999/xlink" xml:space="preserve" overflow="hidden"><g transform="translate(-718 -145)"><path d="M777.766 200.958C777.529 200.966 777.304 201.057 777.128 201.215 773.728 203.755 770.496 206.511 767.451 209.467 766.229 210.689 765.122 211.805 764.104 212.92 762.99 210.817 762.406 208.474 762.404 206.094 762.251 198.424 768.343 192.082 776.013 191.927 783.158 192.113 794.491 188.864 794.491 188.864 794.491 201.33 793.181 212.433 782.768 218.463 780.73 219.694 778.393 220.34 776.013 220.331 772.742 220.34 769.586 219.131 767.158 216.94 764.582 219.818 762.846 222.253 762.846 223.377L759.978 223.377C759.978 221.659 761.412 219.224 763.626 216.533 763.873 216.232 764.405 215.647 764.405 215.647L778.784 202.012C778.813 201.46 778.39 200.989 777.838 200.96 777.814 200.958 777.79 200.958 777.766 200.958Z" fill="#FFFFFF"/><path d="M733.203 208.245C733.871 209.533 735.149 210.391 736.594 210.521L752.531 210.521 752.531 217.604 736.594 217.604C732.556 217.531 728.863 215.315 726.898 211.787 725.016 208.382 725.18 204.214 727.323 200.967L736.532 185.03 730.458 181.488 745.28 177.521 749.246 192.343 742.792 188.633 733.548 204.659C732.759 205.691 732.625 207.082 733.203 208.245Z" fill="#FFFFFF"/><path d="M745.731 171.686 753.142 157.847C755.086 154.35 758.783 152.191 762.784 152.216 766.675 152.296 770.2 154.526 771.94 158.007L781.148 173.944 787.222 170.403 783.255 185.269 768.469 181.302 774.915 177.574 765.627 161.54C765.122 160.342 763.984 159.533 762.687 159.45 761.321 159.518 760.085 160.279 759.411 161.469L751.991 175.308Z" fill="#FFFFFF"/></g></svg>