<svg width="79" height="79" xmlns="http://www.w3.org/2000/svg" xmlns:xlink="http://www.w3.org/1999/xlink" xml:space="preserve" overflow="hidden"><g transform="translate(-895 -150)"><path d="M959.638 168.796C950.909 168.101 942.771 164.118 936.866 157.653 935.753 156.363 933.805 156.22 932.515 157.333 932.4 157.431 932.293 157.539 932.194 157.653 926.289 164.118 918.151 168.101 909.422 168.796 907.801 168.948 906.565 170.316 906.577 171.945L906.577 179.888C906.577 197.158 917.56 212.956 932.811 222.731 933.858 223.404 935.202 223.404 936.25 222.731 951.5 212.953 962.483 197.158 962.483 179.888L962.483 171.945C962.496 170.316 961.26 168.948 959.638 168.796ZM957.134 179.888C957.134 193.631 948.947 207.495 935.233 216.982L934.53 217.468 933.828 216.982C920.114 207.494 911.925 193.627 911.925 179.888L911.925 173.921 912.965 173.757C920.715 172.531 927.928 169.038 933.694 163.717L934.53 162.947 935.367 163.717C941.132 169.038 948.345 172.531 956.094 173.757L957.134 173.921Z" fill="#FFFFFF"/><path d="M934.53 166.284C928.816 171.281 921.859 174.643 914.394 176.014L914.394 179.888C914.394 192.583 921.904 205.451 934.53 214.459 947.155 205.452 954.666 192.584 954.666 179.888L954.666 176.014C947.2 174.643 940.243 171.281 934.53 166.284ZM932.416 198.415 924.095 190.092 926.923 187.265 932.416 192.759 943.667 181.508 946.495 184.336Z" fill="#FFFFFF"/></g></svg>