<svg width="85" height="86" xmlns="http://www.w3.org/2000/svg" xmlns:xlink="http://www.w3.org/1999/xlink" xml:space="preserve" overflow="hidden"><g transform="translate(-529 -136)"><path d="M43.5182 32.8755 43.5182 32.8755 48.5031 34.9385C48.6812 31.6671 51.4776 29.1594 54.7491 29.3375 57.0281 29.4615 59.0338 30.882 59.9073 32.9906 60.7524 35.1018 60.3531 37.5078 58.8714 39.2328L64.8745 41.7208 64.9807 41.7651 73.826 20.3646 52.3635 11.5104 49.0255 19.7182 49.0255 19.7182 48.7688 20.3292 48.6979 20.0458C47.7233 17.705 45.0396 16.5926 42.6948 17.5578 41.6668 18.0017 40.8292 18.7953 40.3307 19.7979 39.5016 22.1914 40.7697 24.8039 43.1633 25.633 44.2249 26.0008 45.3846 25.9661 46.4224 25.5354L46.7057 25.4203 46.5375 25.8276 46.5375 25.8276Z" fill="#FFFFFF" transform="matrix(1 0 0 1.01176 529 136)"/><path d="M41.2781 64.2813C43.5993 63.5131 44.8585 61.0088 44.0904 58.6875 43.3223 56.3663 40.8179 55.1073 38.4967 55.8753 37.6148 56.1671 36.847 56.7289 36.3021 57.4813L36.3021 49.5125 30.9276 49.5125C30.9665 49.8061 30.9872 50.1017 30.9896 50.3979 30.9896 54.31 27.8183 57.4813 23.9063 57.4813 19.9942 57.4813 16.8229 54.31 16.8229 50.3979 16.8253 50.1017 16.846 49.8061 16.8849 49.5125L11.5104 49.5125 11.5104 72.5333 36.3021 72.5333 36.3021 62.7938C36.4008 62.9297 36.5072 63.0597 36.6208 63.1833 36.6686 63.2741 36.7249 63.3601 36.7891 63.4401 37.8356 64.4423 39.3281 64.8281 40.7292 64.4583 40.8797 64.4583 41.0214 64.3698 41.163 64.3255Z" fill="#FFFFFF" transform="matrix(1 0 0 1.01176 529 136)"/><path d="M52.2396 49.4948C52.377 49.3948 52.5072 49.2854 52.6292 49.1672 52.7259 49.1303 52.8135 49.0729 52.8859 48.999 53.9743 47.8326 54.3347 46.1631 53.8245 44.6516L53.8245 44.5187C53.0018 42.2163 50.4683 41.0168 48.1659 41.8396 45.8634 42.6623 44.664 45.1957 45.4867 47.4982 45.7683 48.2866 46.2678 48.9789 46.9271 49.4948L38.9583 49.4948 38.9583 53.125C39.2521 53.0894 39.5478 53.0717 39.8438 53.0719 43.7558 53.0719 46.9271 56.2432 46.9271 60.1552 46.9271 64.0672 43.7558 67.2385 39.8438 67.2385 39.5477 67.2358 39.2519 67.2152 38.9583 67.1766L38.9583 72.5156 61.9792 72.5156 61.9792 49.4948Z" fill="#FFFFFF" transform="matrix(1 0 0 1.01176 529 136)"/><path d="M36.3021 31.2375 36.3021 22.0469 11.5104 22.0469 11.5104 46.8385 21.25 46.8385C20.1353 47.6746 19.4792 48.9867 19.4792 50.3802 19.4792 52.8252 21.4613 54.8073 23.9063 54.8073 26.3512 54.8073 28.3333 52.8252 28.3333 50.3802 28.3333 48.9867 27.6772 47.6746 26.5625 46.8385L36.3021 46.8385 36.3021 37.7365C34.3978 39.5233 31.4329 39.5233 29.5286 37.7365 27.734 35.9837 27.7001 33.1079 29.4529 31.3133 29.4778 31.2877 29.5031 31.2625 29.5286 31.2375 31.4329 29.4506 34.3978 29.4506 36.3021 31.2375Z" fill="#FFFFFF" transform="matrix(1 0 0 1.01176 529 136)"/></g></svg>