<svg width="79" height="79" xmlns="http://www.w3.org/2000/svg" xmlns:xlink="http://www.w3.org/1999/xlink" xml:space="preserve" overflow="hidden"><g transform="translate(-1083 -150)"><path d="M1101.93 166.458 1110.98 166.458 1110.98 171.396 1134.02 171.396 1134.02 166.458 1143.07 166.458 1143.07 217.479 1101.93 217.479 1101.93 166.458ZM1122.58 159.875C1123.9 159.875 1124.97 161.027 1124.97 162.344 1124.97 163.743 1123.9 164.813 1122.5 164.813 1121.1 164.813 1120.03 163.743 1120.03 162.344 1120.03 160.945 1121.1 159.875 1122.58 159.875ZM1096.99 164.813 1096.99 219.125C1096.99 220.935 1098.47 222.417 1100.28 222.417L1144.72 222.417C1146.53 222.417 1148.01 220.935 1148.01 219.125L1148.01 164.813C1148.01 163.002 1146.53 161.521 1144.72 161.521L1130.73 161.521 1130.73 159.875C1130.73 158.065 1129.25 156.583 1127.44 156.583L1117.56 156.583C1115.75 156.583 1114.27 158.065 1114.27 159.875L1114.27 161.521 1100.28 161.521C1098.47 161.521 1096.99 163.002 1096.99 164.813Z" fill="#FFFFFF"/><path d="M1106.86 177.979 1138.14 177.979 1138.14 181.271 1106.86 181.271Z" fill="#FFFFFF"/><path d="M1106.86 201.844 1119.21 201.844 1119.21 205.135 1106.86 205.135Z" fill="#FFFFFF"/><path d="M1122.5 184.563 1138.14 184.563 1138.14 187.854 1122.5 187.854Z" fill="#FFFFFF"/><path d="M1125.63 207.357 1122.5 213.035 1125.22 212.624 1126.61 214.846 1129.91 208.921C1129.49 208.839 1129.08 208.674 1128.67 208.427 1128.51 208.427 1128.34 208.509 1128.1 208.509 1127.68 208.509 1127.19 208.427 1126.78 208.263 1126.37 208.016 1125.96 207.769 1125.63 207.357Z" fill="#FFFFFF"/><path d="M1130.98 208.921 1134.1 215.01 1135.42 212.542 1138.05 213.118 1135.09 207.193 1135.01 207.193C1134.68 207.686 1134.1 208.098 1133.53 208.345 1133.12 208.509 1132.79 208.592 1132.38 208.592 1132.21 208.592 1132.05 208.592 1131.88 208.592 1131.63 208.756 1131.31 208.839 1130.98 208.921Z" fill="#FFFFFF"/><path d="M1125.96 200.116 1125.96 200.116C1125.96 197.565 1128.01 195.59 1130.48 195.59 1133.03 195.59 1135.01 197.647 1135.01 200.116 1135.01 202.584 1132.95 204.642 1130.48 204.642 1127.93 204.642 1125.96 202.584 1125.96 200.116ZM1122.75 200.116C1122.75 200.609 1122.91 201.103 1123.24 201.432 1123.08 201.926 1123.08 202.42 1123.24 202.914 1123.41 203.407 1123.82 203.819 1124.39 204.066 1124.39 204.642 1124.56 205.135 1124.97 205.547 1125.3 205.876 1125.79 206.123 1126.29 206.123 1126.45 206.617 1126.86 206.946 1127.27 207.11 1127.77 207.357 1128.34 207.357 1128.92 207.11 1129.33 207.522 1129.82 207.769 1130.4 207.769 1130.89 207.769 1131.39 207.604 1131.72 207.275 1132.21 207.44 1132.7 207.44 1133.2 207.275 1133.69 207.11 1134.1 206.699 1134.35 206.123 1134.93 206.123 1135.42 205.958 1135.83 205.547 1136.16 205.218 1136.41 204.724 1136.41 204.23 1136.9 204.066 1137.23 203.654 1137.39 203.243 1137.64 202.749 1137.64 202.173 1137.39 201.597 1137.81 201.185 1138.05 200.692 1138.05 200.116 1138.05 199.622 1137.89 199.128 1137.56 198.799 1137.72 198.305 1137.72 197.811 1137.56 197.318 1137.39 196.824 1136.98 196.413 1136.41 196.166 1136.41 195.59 1136.24 195.096 1135.83 194.684 1135.5 194.355 1135.01 194.108 1134.51 194.108 1134.35 193.615 1133.94 193.285 1133.53 193.121 1133.03 192.874 1132.46 192.874 1131.88 193.121 1131.47 192.709 1130.98 192.462 1130.4 192.462 1129.91 192.462 1129.41 192.627 1129.08 192.956 1128.59 192.792 1128.1 192.792 1127.6 192.956 1127.11 193.121 1126.7 193.532 1126.45 194.108 1125.87 194.108 1125.38 194.273 1124.97 194.684 1124.64 195.014 1124.39 195.507 1124.39 196.001 1123.9 196.166 1123.57 196.577 1123.41 196.989 1123.16 197.482 1123.16 198.058 1123.41 198.634 1122.91 198.964 1122.75 199.54 1122.75 200.116L1122.75 200.116Z" fill="#FFFFFF"/></g></svg>